<?xml version="1.0" encoding="us-ascii" standalone="no"?><svg xmlns="http://www.w3.org/2000/svg" xmlns:xlink="http://www.w3.org/1999/xlink" contentStyleType="text/css" height="474px" preserveAspectRatio="none" style="width:1684px;height:474px;background:#FFFFFF;" version="1.1" viewBox="0 0 1684 474" width="1684px" zoomAndPan="magnify"><defs/><g><!--cluster User Interfaces--><g id="cluster_User Interfaces"><path d="M146.5,127.3 L269.5,127.3 A3.75,3.75 0 0 1 272,129.8 L279,149.5969 L522.5,149.5969 A2.5,2.5 0 0 1 525,152.0969 L525,222.1 A2.5,2.5 0 0 1 522.5,224.6 L146.5,224.6 A2.5,2.5 0 0 1 144,222.1 L144,129.8 A2.5,2.5 0 0 1 146.5,127.3 " fill="none" style="stroke:#000000;stroke-width:1.5;"/><line style="stroke:#000000;stroke-width:1.5;" x1="144" x2="279" y1="149.5969" y2="149.5969"/><text fill="#000000" font-family="sans-serif" font-size="14" font-weight="bold" lengthAdjust="spacing" textLength="122" x="148" y="142.2951">User Interfaces</text></g><!--cluster Backend Services--><g id="cluster_Backend Services"><path d="M8.5,248.6 L149.5,248.6 A3.75,3.75 0 0 1 152,251.1 L159,270.8969 L1674.5,270.8969 A2.5,2.5 0 0 1 1677,273.3969 L1677,343.39 A2.5,2.5 0 0 1 1674.5,345.89 L8.5,345.89 A2.5,2.5 0 0 1 6,343.39 L6,251.1 A2.5,2.5 0 0 1 8.5,248.6 " fill="none" style="stroke:#000000;stroke-width:1.5;"/><line style="stroke:#000000;stroke-width:1.5;" x1="6" x2="159" y1="270.8969" y2="270.8969"/><text fill="#000000" font-family="sans-serif" font-size="14" font-weight="bold" lengthAdjust="spacing" textLength="140" x="10" y="263.5951">Backend Services</text></g><!--cluster Databases--><g id="cluster_Databases"><path d="M174.5,369.89 L257.5,369.89 A3.75,3.75 0 0 1 260,372.39 L267,392.1869 L1498.5,392.1869 A2.5,2.5 0 0 1 1501,394.6869 L1501,464.69 A2.5,2.5 0 0 1 1498.5,467.19 L174.5,467.19 A2.5,2.5 0 0 1 172,464.69 L172,372.39 A2.5,2.5 0 0 1 174.5,369.89 " fill="none" style="stroke:#000000;stroke-width:1.5;"/><line style="stroke:#000000;stroke-width:1.5;" x1="172" x2="267" y1="392.1869" y2="392.1869"/><text fill="#000000" font-family="sans-serif" font-size="14" font-weight="bold" lengthAdjust="spacing" textLength="82" x="176" y="384.8851">Databases</text></g><!--cluster Additional Components--><g id="cluster_Additional Components"><path d="M295.5,6 L479.5,6 A3.75,3.75 0 0 1 482,8.5 L489,28.2969 L948.5,28.2969 A2.5,2.5 0 0 1 951,30.7969 L951,100.8 A2.5,2.5 0 0 1 948.5,103.3 L295.5,103.3 A2.5,2.5 0 0 1 293,100.8 L293,8.5 A2.5,2.5 0 0 1 295.5,6 " fill="none" style="stroke:#000000;stroke-width:1.5;"/><line style="stroke:#000000;stroke-width:1.5;" x1="293" x2="489" y1="28.2969" y2="28.2969"/><text fill="#000000" font-family="sans-serif" font-size="14" font-weight="bold" lengthAdjust="spacing" textLength="183" x="297" y="20.9951">Additional Components</text></g><!--entity Web Application--><g id="elem_Web Application"><rect fill="#F1F1F1" height="46.2969" rx="2.5" ry="2.5" style="stroke:#181818;stroke-width:0.5;" width="150" x="359" y="162.3"/><rect fill="#F1F1F1" height="10" style="stroke:#181818;stroke-width:0.5;" width="15" x="489" y="167.3"/><rect fill="#F1F1F1" height="2" style="stroke:#181818;stroke-width:0.5;" width="4" x="487" y="169.3"/><rect fill="#F1F1F1" height="2" style="stroke:#181818;stroke-width:0.5;" width="4" x="487" y="173.3"/><text fill="#000000" font-family="sans-serif" font-size="14" lengthAdjust="spacing" textLength="110" x="374" y="195.2951">Web Application</text></g><!--entity Mobile Application--><g id="elem_Mobile Application"><rect fill="#F1F1F1" height="46.2969" rx="2.5" ry="2.5" style="stroke:#181818;stroke-width:0.5;" width="164" x="160" y="162.3"/><rect fill="#F1F1F1" height="10" style="stroke:#181818;stroke-width:0.5;" width="15" x="304" y="167.3"/><rect fill="#F1F1F1" height="2" style="stroke:#181818;stroke-width:0.5;" width="4" x="302" y="169.3"/><rect fill="#F1F1F1" height="2" style="stroke:#181818;stroke-width:0.5;" width="4" x="302" y="173.3"/><text fill="#000000" font-family="sans-serif" font-size="14" lengthAdjust="spacing" textLength="124" x="175" y="195.2951">Mobile Application</text></g><!--entity Authentication Service--><g id="elem_Authentication Service"><rect fill="#F1F1F1" height="46.2969" rx="2.5" ry="2.5" style="stroke:#181818;stroke-width:0.5;" width="194" x="22" y="283.6"/><rect fill="#F1F1F1" height="10" style="stroke:#181818;stroke-width:0.5;" width="15" x="196" y="288.6"/><rect fill="#F1F1F1" height="2" style="stroke:#181818;stroke-width:0.5;" width="4" x="194" y="290.6"/><rect fill="#F1F1F1" height="2" style="stroke:#181818;stroke-width:0.5;" width="4" x="194" y="294.6"/><text fill="#000000" font-family="sans-serif" font-size="14" lengthAdjust="spacing" textLength="154" x="37" y="316.5951">Authentication Service</text></g><!--entity Customer Management Service--><g id="elem_Customer Management Service"><rect fill="#F1F1F1" height="46.2969" rx="2.5" ry="2.5" style="stroke:#181818;stroke-width:0.5;" width="257" x="1042.5" y="283.6"/><rect fill="#F1F1F1" height="10" style="stroke:#181818;stroke-width:0.5;" width="15" x="1279.5" y="288.6"/><rect fill="#F1F1F1" height="2" style="stroke:#181818;stroke-width:0.5;" width="4" x="1277.5" y="290.6"/><rect fill="#F1F1F1" height="2" style="stroke:#181818;stroke-width:0.5;" width="4" x="1277.5" y="294.6"/><text fill="#000000" font-family="sans-serif" font-size="14" lengthAdjust="spacing" textLength="217" x="1057.5" y="316.5951">Customer Management Service</text></g><!--entity Service Order Management--><g id="elem_Service Order Management"><rect fill="#F1F1F1" height="46.2969" rx="2.5" ry="2.5" style="stroke:#181818;stroke-width:0.5;" width="228" x="488" y="283.6"/><rect fill="#F1F1F1" height="10" style="stroke:#181818;stroke-width:0.5;" width="15" x="696" y="288.6"/><rect fill="#F1F1F1" height="2" style="stroke:#181818;stroke-width:0.5;" width="4" x="694" y="290.6"/><rect fill="#F1F1F1" height="2" style="stroke:#181818;stroke-width:0.5;" width="4" x="694" y="294.6"/><text fill="#000000" font-family="sans-serif" font-size="14" lengthAdjust="spacing" textLength="188" x="503" y="316.5951">Service Order Management</text></g><!--entity Employee Management--><g id="elem_Employee Management"><rect fill="#F1F1F1" height="46.2969" rx="2.5" ry="2.5" style="stroke:#181818;stroke-width:0.5;" width="203" x="250.5" y="283.6"/><rect fill="#F1F1F1" height="10" style="stroke:#181818;stroke-width:0.5;" width="15" x="433.5" y="288.6"/><rect fill="#F1F1F1" height="2" style="stroke:#181818;stroke-width:0.5;" width="4" x="431.5" y="290.6"/><rect fill="#F1F1F1" height="2" style="stroke:#181818;stroke-width:0.5;" width="4" x="431.5" y="294.6"/><text fill="#000000" font-family="sans-serif" font-size="14" lengthAdjust="spacing" textLength="163" x="265.5" y="316.5951">Employee Management</text></g><!--entity POS System--><g id="elem_POS System"><rect fill="#F1F1F1" height="46.2969" rx="2.5" ry="2.5" style="stroke:#181818;stroke-width:0.5;" width="124" x="1334" y="283.6"/><rect fill="#F1F1F1" height="10" style="stroke:#181818;stroke-width:0.5;" width="15" x="1438" y="288.6"/><rect fill="#F1F1F1" height="2" style="stroke:#181818;stroke-width:0.5;" width="4" x="1436" y="290.6"/><rect fill="#F1F1F1" height="2" style="stroke:#181818;stroke-width:0.5;" width="4" x="1436" y="294.6"/><text fill="#000000" font-family="sans-serif" font-size="14" lengthAdjust="spacing" textLength="84" x="1349" y="316.5951">POS System</text></g><!--entity Analytics and Reporting Service--><g id="elem_Analytics and Reporting Service"><rect fill="#F1F1F1" height="46.2969" rx="2.5" ry="2.5" style="stroke:#181818;stroke-width:0.5;" width="256" x="751" y="283.6"/><rect fill="#F1F1F1" height="10" style="stroke:#181818;stroke-width:0.5;" width="15" x="987" y="288.6"/><rect fill="#F1F1F1" height="2" style="stroke:#181818;stroke-width:0.5;" width="4" x="985" y="290.6"/><rect fill="#F1F1F1" height="2" style="stroke:#181818;stroke-width:0.5;" width="4" x="985" y="294.6"/><text fill="#000000" font-family="sans-serif" font-size="14" lengthAdjust="spacing" textLength="216" x="766" y="316.5951">Analytics and Reporting Service</text></g><!--entity Integration Service--><g id="elem_Integration Service"><rect fill="#F1F1F1" height="46.2969" rx="2.5" ry="2.5" style="stroke:#181818;stroke-width:0.5;" width="168" x="1493" y="283.6"/><rect fill="#F1F1F1" height="10" style="stroke:#181818;stroke-width:0.5;" width="15" x="1641" y="288.6"/><rect fill="#F1F1F1" height="2" style="stroke:#181818;stroke-width:0.5;" width="4" x="1639" y="290.6"/><rect fill="#F1F1F1" height="2" style="stroke:#181818;stroke-width:0.5;" width="4" x="1639" y="294.6"/><text fill="#000000" font-family="sans-serif" font-size="14" lengthAdjust="spacing" textLength="128" x="1508" y="316.5951">Integration Service</text></g><!--entity User Database--><g id="elem_User Database"><rect fill="#F1F1F1" height="46.2969" rx="2.5" ry="2.5" style="stroke:#181818;stroke-width:0.5;" width="142" x="188" y="404.89"/><rect fill="#F1F1F1" height="10" style="stroke:#181818;stroke-width:0.5;" width="15" x="310" y="409.89"/><rect fill="#F1F1F1" height="2" style="stroke:#181818;stroke-width:0.5;" width="4" x="308" y="411.89"/><rect fill="#F1F1F1" height="2" style="stroke:#181818;stroke-width:0.5;" width="4" x="308" y="415.89"/><text fill="#000000" font-family="sans-serif" font-size="14" lengthAdjust="spacing" textLength="102" x="203" y="437.8851">User Database</text></g><!--entity Customer Database--><g id="elem_Customer Database"><rect fill="#F1F1F1" height="46.2969" rx="2.5" ry="2.5" style="stroke:#181818;stroke-width:0.5;" width="178" x="815" y="404.89"/><rect fill="#F1F1F1" height="10" style="stroke:#181818;stroke-width:0.5;" width="15" x="973" y="409.89"/><rect fill="#F1F1F1" height="2" style="stroke:#181818;stroke-width:0.5;" width="4" x="971" y="411.89"/><rect fill="#F1F1F1" height="2" style="stroke:#181818;stroke-width:0.5;" width="4" x="971" y="415.89"/><text fill="#000000" font-family="sans-serif" font-size="14" lengthAdjust="spacing" textLength="138" x="830" y="437.8851">Customer Database</text></g><!--entity Service Order Database--><g id="elem_Service Order Database"><rect fill="#F1F1F1" height="46.2969" rx="2.5" ry="2.5" style="stroke:#181818;stroke-width:0.5;" width="203" x="577.5" y="404.89"/><rect fill="#F1F1F1" height="10" style="stroke:#181818;stroke-width:0.5;" width="15" x="760.5" y="409.89"/><rect fill="#F1F1F1" height="2" style="stroke:#181818;stroke-width:0.5;" width="4" x="758.5" y="411.89"/><rect fill="#F1F1F1" height="2" style="stroke:#181818;stroke-width:0.5;" width="4" x="758.5" y="415.89"/><text fill="#000000" font-family="sans-serif" font-size="14" lengthAdjust="spacing" textLength="163" x="592.5" y="437.8851">Service Order Database</text></g><!--entity Employee Database--><g id="elem_Employee Database"><rect fill="#F1F1F1" height="46.2969" rx="2.5" ry="2.5" style="stroke:#181818;stroke-width:0.5;" width="178" x="365" y="404.89"/><rect fill="#F1F1F1" height="10" style="stroke:#181818;stroke-width:0.5;" width="15" x="523" y="409.89"/><rect fill="#F1F1F1" height="2" style="stroke:#181818;stroke-width:0.5;" width="4" x="521" y="411.89"/><rect fill="#F1F1F1" height="2" style="stroke:#181818;stroke-width:0.5;" width="4" x="521" y="415.89"/><text fill="#000000" font-family="sans-serif" font-size="14" lengthAdjust="spacing" textLength="138" x="380" y="437.8851">Employee Database</text></g><!--entity Product Inventory Database--><g id="elem_Product Inventory Database"><rect fill="#F1F1F1" height="46.2969" rx="2.5" ry="2.5" style="stroke:#181818;stroke-width:0.5;" width="231" x="1027.5" y="404.89"/><rect fill="#F1F1F1" height="10" style="stroke:#181818;stroke-width:0.5;" width="15" x="1238.5" y="409.89"/><rect fill="#F1F1F1" height="2" style="stroke:#181818;stroke-width:0.5;" width="4" x="1236.5" y="411.89"/><rect fill="#F1F1F1" height="2" style="stroke:#181818;stroke-width:0.5;" width="4" x="1236.5" y="415.89"/><text fill="#000000" font-family="sans-serif" font-size="14" lengthAdjust="spacing" textLength="191" x="1042.5" y="437.8851">Product Inventory Database</text></g><!--entity Transaction Database--><g id="elem_Transaction Database"><rect fill="#F1F1F1" height="46.2969" rx="2.5" ry="2.5" style="stroke:#181818;stroke-width:0.5;" width="191" x="1293.5" y="404.89"/><rect fill="#F1F1F1" height="10" style="stroke:#181818;stroke-width:0.5;" width="15" x="1464.5" y="409.89"/><rect fill="#F1F1F1" height="2" style="stroke:#181818;stroke-width:0.5;" width="4" x="1462.5" y="411.89"/><rect fill="#F1F1F1" height="2" style="stroke:#181818;stroke-width:0.5;" width="4" x="1462.5" y="415.89"/><text fill="#000000" font-family="sans-serif" font-size="14" lengthAdjust="spacing" textLength="151" x="1308.5" y="437.8851">Transaction Database</text></g><!--entity Notification Service--><g id="elem_Notification Service"><rect fill="#F1F1F1" height="46.2969" rx="2.5" ry="2.5" style="stroke:#181818;stroke-width:0.5;" width="170" x="309" y="41"/><rect fill="#F1F1F1" height="10" style="stroke:#181818;stroke-width:0.5;" width="15" x="459" y="46"/><rect fill="#F1F1F1" height="2" style="stroke:#181818;stroke-width:0.5;" width="4" x="457" y="48"/><rect fill="#F1F1F1" height="2" style="stroke:#181818;stroke-width:0.5;" width="4" x="457" y="52"/><text fill="#000000" font-family="sans-serif" font-size="14" lengthAdjust="spacing" textLength="130" x="324" y="73.9951">Notification Service</text></g><!--entity File Storage Service--><g id="elem_File Storage Service"><rect fill="#F1F1F1" height="46.2969" rx="2.5" ry="2.5" style="stroke:#181818;stroke-width:0.5;" width="175" x="514.5" y="41"/><rect fill="#F1F1F1" height="10" style="stroke:#181818;stroke-width:0.5;" width="15" x="669.5" y="46"/><rect fill="#F1F1F1" height="2" style="stroke:#181818;stroke-width:0.5;" width="4" x="667.5" y="48"/><rect fill="#F1F1F1" height="2" style="stroke:#181818;stroke-width:0.5;" width="4" x="667.5" y="52"/><text fill="#000000" font-family="sans-serif" font-size="14" lengthAdjust="spacing" textLength="135" x="529.5" y="73.9951">File Storage Service</text></g><!--entity Security and Compliance--><g id="elem_Security and Compliance"><rect fill="#F1F1F1" height="46.2969" rx="2.5" ry="2.5" style="stroke:#181818;stroke-width:0.5;" width="210" x="725" y="41"/><rect fill="#F1F1F1" height="10" style="stroke:#181818;stroke-width:0.5;" width="15" x="915" y="46"/><rect fill="#F1F1F1" height="2" style="stroke:#181818;stroke-width:0.5;" width="4" x="913" y="48"/><rect fill="#F1F1F1" height="2" style="stroke:#181818;stroke-width:0.5;" width="4" x="913" y="52"/><text fill="#000000" font-family="sans-serif" font-size="14" lengthAdjust="spacing" textLength="170" x="740" y="73.9951">Security and Compliance</text></g><!--entity External APIs--><g id="elem_External APIs"><rect fill="#F1F1F1" height="46.2969" rx="2.5" ry="2.5" style="stroke:#181818;stroke-width:0.5;" width="128" x="1520" y="404.89"/><rect fill="#F1F1F1" height="10" style="stroke:#181818;stroke-width:0.5;" width="15" x="1628" y="409.89"/><rect fill="#F1F1F1" height="2" style="stroke:#181818;stroke-width:0.5;" width="4" x="1626" y="411.89"/><rect fill="#F1F1F1" height="2" style="stroke:#181818;stroke-width:0.5;" width="4" x="1626" y="415.89"/><text fill="#000000" font-family="sans-serif" font-size="14" lengthAdjust="spacing" textLength="88" x="1535" y="437.8851">External APIs</text></g><!--entity All Components--><g id="elem_All Components"><rect fill="#F1F1F1" height="46.2969" rx="2.5" ry="2.5" style="stroke:#181818;stroke-width:0.5;" width="149" x="755.5" y="162.3"/><rect fill="#F1F1F1" height="10" style="stroke:#181818;stroke-width:0.5;" width="15" x="884.5" y="167.3"/><rect fill="#F1F1F1" height="2" style="stroke:#181818;stroke-width:0.5;" width="4" x="882.5" y="169.3"/><rect fill="#F1F1F1" height="2" style="stroke:#181818;stroke-width:0.5;" width="4" x="882.5" y="173.3"/><text fill="#000000" font-family="sans-serif" font-size="14" lengthAdjust="spacing" textLength="109" x="770.5" y="195.2951">All Components</text></g><!--link Web Application to Authentication Service--><g id="link_Web Application_Authentication Service"><path d="M397.29,209.02 C380.96,217.95 361.12,227.32 342,232.6 C295.17,245.51 279.46,226.42 233,240.6 C202.69,249.85 176.6586,264.8965 154.6486,279.7965 " fill="none" id="Web Application-to-Authentication Service" style="stroke:#181818;stroke-width:1.0;"/><polygon fill="#181818" points="149.68,283.16,159.3752,281.4271,153.8205,280.357,154.8905,274.8023,149.68,283.16" style="stroke:#181818;stroke-width:1.0;"/></g><!--link Mobile Application to Authentication Service--><g id="link_Mobile Application_Authentication Service"><path d="M218.86,208.89 C196.87,230.22 168.2969,257.9326 146.3369,279.2326 " fill="none" id="Mobile Application-to-Authentication Service" style="stroke:#181818;stroke-width:1.0;"/><polygon fill="#181818" points="142.03,283.41,151.2753,280.0151,145.6191,279.9288,145.7054,274.2726,142.03,283.41" style="stroke:#181818;stroke-width:1.0;"/></g><!--link Authentication Service to User Database--><g id="link_Authentication Service_User Database"><path d="M145.33,330.18 C170.36,351.51 203.222,379.5199 228.222,400.8099 " fill="none" id="Authentication Service-to-User Database" style="stroke:#181818;stroke-width:1.0;"/><polygon fill="#181818" points="232.79,404.7,228.5314,395.8195,228.9833,401.4582,223.3445,401.9102,232.79,404.7" style="stroke:#181818;stroke-width:1.0;"/></g><!--link Web Application to Customer Management Service--><g id="link_Web Application_Customer Management Service"><path d="M509.27,200.51 C570.6,211.33 659.57,225.58 738,232.6 C801.55,238.28 962.79,226.44 1025,240.6 C1063.03,249.25 1097.9907,265.2163 1126.5807,280.3963 " fill="none" id="Web Application-to-Customer Management Service" style="stroke:#181818;stroke-width:1.0;"/><polygon fill="#181818" points="1131.88,283.21,1125.8068,275.4565,1127.4639,280.8652,1122.0552,282.5223,1131.88,283.21" style="stroke:#181818;stroke-width:1.0;"/></g><!--link Mobile Application to Service Order Management--><g id="link_Mobile Application_Service Order Management"><path d="M282.1,209.09 C299.89,218.04 321.42,227.4 342,232.6 C397.7,246.65 415.51,225.73 471,240.6 C505.23,249.76 535.8729,265.2572 561.3929,280.2072 " fill="none" id="Mobile Application-to-Service Order Management" style="stroke:#181818;stroke-width:1.0;"/><polygon fill="#181818" points="566.57,283.24,560.8263,275.2394,562.2558,280.7127,556.7825,282.1422,566.57,283.24" style="stroke:#181818;stroke-width:1.0;"/></g><!--link Customer Management Service to Customer Database--><g id="link_Customer Management Service_Customer Database"><path d="M1092.22,330.3 C1065.6,338.95 1036.04,349.7 1010,361.89 C984.18,373.98 961.7991,387.602 941.3391,401.182 " fill="none" id="Customer Management Service-to-Customer Database" style="stroke:#181818;stroke-width:1.0;"/><polygon fill="#181818" points="936.34,404.5,946.0506,402.8556,940.5059,401.735,941.6266,396.1902,936.34,404.5" style="stroke:#181818;stroke-width:1.0;"/></g><!--link Service Order Management to Service Order Database--><g id="link_Service Order Management_Service Order Database"><path d="M616.48,330.18 C630.25,351.51 647.5865,378.3687 661.3265,399.6587 " fill="none" id="Service Order Management-to-Service Order Database" style="stroke:#181818;stroke-width:1.0;"/><polygon fill="#181818" points="664.58,404.7,663.0606,394.9691,661.8687,400.4989,656.3389,399.3071,664.58,404.7" style="stroke:#181818;stroke-width:1.0;"/></g><!--link Employee Management to Employee Database--><g id="link_Employee Management_Employee Database"><path d="M371.19,330.18 C389.42,351.51 412.79,378.8504 431,400.1404 " fill="none" id="Employee Management-to-Employee Database" style="stroke:#181818;stroke-width:1.0;"/><polygon fill="#181818" points="434.9,404.7,432.0898,395.2606,431.65,400.9003,426.0103,400.4606,434.9,404.7" style="stroke:#181818;stroke-width:1.0;"/></g><!--link POS System to Product Inventory Database--><g id="link_POS System_Product Inventory Database"><path d="M1363.03,330.35 C1349.31,338.85 1332.9,347.89 1317,353.89 C1299.63,360.45 1293.6,355.98 1276,361.89 C1243.1,372.95 1213.181,387.5936 1187.271,401.6836 " fill="none" id="POS System-to-Product Inventory Database" style="stroke:#181818;stroke-width:1.0;"/><polygon fill="#181818" points="1182,404.55,1191.8175,403.7644,1186.3925,402.1613,1187.9956,396.7364,1182,404.55" style="stroke:#181818;stroke-width:1.0;"/></g><!--link POS System to Transaction Database--><g id="link_POS System_Transaction Database"><path d="M1394.68,330.18 C1393.43,351.51 1391.9117,377.4203 1390.6617,398.7103 " fill="none" id="POS System-to-Transaction Database" style="stroke:#181818;stroke-width:1.0;"/><polygon fill="#181818" points="1390.31,404.7,1394.8306,395.9499,1390.6031,399.7086,1386.8444,395.481,1390.31,404.7" style="stroke:#181818;stroke-width:1.0;"/></g><!--link Integration Service to External APIs--><g id="link_Integration Service_External APIs"><path d="M1578.32,330.18 C1579.57,351.51 1581.0883,377.4203 1582.3383,398.7103 " fill="none" id="Integration Service-to-External APIs" style="stroke:#181818;stroke-width:1.0;"/><polygon fill="#181818" points="1582.69,404.7,1586.1556,395.481,1582.3969,399.7086,1578.1694,395.9499,1582.69,404.7" style="stroke:#181818;stroke-width:1.0;"/></g><!--link Analytics and Reporting Service to Customer Database--><g id="link_Analytics and Reporting Service_Customer Database"><path d="M883.7,330.18 C888.17,351.51 893.6298,377.5375 898.0898,398.8275 " fill="none" id="Analytics and Reporting Service-to-Customer Database" style="stroke:#181818;stroke-width:1.0;"/><polygon fill="#181818" points="899.32,404.7,901.3897,395.0711,898.2948,399.8062,893.5596,396.7114,899.32,404.7" style="stroke:#181818;stroke-width:1.0;"/></g><!--link Analytics and Reporting Service to Service Order Database--><g id="link_Analytics and Reporting Service_Service Order Database"><path d="M841.38,330.18 C805.74,351.44 757.6432,380.1368 721.9432,401.4268 " fill="none" id="Analytics and Reporting Service-to-Service Order Database" style="stroke:#181818;stroke-width:1.0;"/><polygon fill="#181818" points="716.79,404.5,726.5686,403.3257,721.0843,401.939,722.471,396.4548,716.79,404.5" style="stroke:#181818;stroke-width:1.0;"/></g><!--link Analytics and Reporting Service to Employee Database--><g id="link_Analytics and Reporting Service_Employee Database"><path d="M820.27,330.3 C794.24,339.28 763,348.71 734,353.89 C695.9,360.71 597,350.51 560,361.89 C531.1,370.79 506.9201,385.867 486.5901,400.937 " fill="none" id="Analytics and Reporting Service-to-Employee Database" style="stroke:#181818;stroke-width:1.0;"/><polygon fill="#181818" points="481.77,404.51,491.3822,402.3639,485.7868,401.5325,486.6182,395.9371,481.77,404.51" style="stroke:#181818;stroke-width:1.0;"/></g><!--link Notification Service to Web Application--><g id="link_Notification Service_Web Application"><path d="M401.52,87.59 C408.68,108.92 417.463,135.1211 424.603,156.4211 " fill="none" id="Notification Service-to-Web Application" style="stroke:#181818;stroke-width:1.0;"/><polygon fill="#181818" points="426.51,162.11,427.4421,152.3054,424.9209,157.3693,419.8569,154.848,426.51,162.11" style="stroke:#181818;stroke-width:1.0;"/></g><!--link Notification Service to Mobile Application--><g id="link_Notification Service_Mobile Application"><path d="M365.41,87.59 C338.32,108.85 302.5693,136.9048 275.4393,158.2048 " fill="none" id="Notification Service-to-Mobile Application" style="stroke:#181818;stroke-width:1.0;"/><polygon fill="#181818" points="270.72,161.91,280.2691,159.4985,274.6527,158.8224,275.3288,153.2061,270.72,161.91" style="stroke:#181818;stroke-width:1.0;"/></g><!--link File Storage Service to Service Order Management--><g id="link_File Storage Service_Service Order Management"><path d="M602,87.79 C602,133.76 602,231.57 602,277.35 " fill="none" id="File Storage Service-to-Service Order Management" style="stroke:#181818;stroke-width:1.0;"/><polygon fill="#181818" points="602,283.35,606,274.35,602,278.35,598,274.35,602,283.35" style="stroke:#181818;stroke-width:1.0;"/></g><!--link Security and Compliance to All Components--><g id="link_Security and Compliance_All Components"><path d="M830,87.59 C830,108.92 830,134.81 830,156.11 " fill="none" id="Security and Compliance-to-All Components" style="stroke:#181818;stroke-width:1.0;"/><polygon fill="#181818" points="830,162.11,834,153.11,830,157.11,826,153.11,830,162.11" style="stroke:#181818;stroke-width:1.0;"/></g><!--SRC=[ZLJBRi8m4Bpp5HPtVg5IIbk90oLgMlLGSLYIXLeujcKxg57LVw-T1yJ13joIVSpExivQGdw40vBvXqP5LjoWsaEEUav-PuHyVUAE958oceEXWc-TRIrsbA5l_flDP8_qQ3-G5oH3TQ8NgAGotyXDbz9x6yHbfOqeRVqrS0jHsZ3FttsJZIgyeCRvN4ecQiInFTra9AkrmRBvJJYmsbRN12otDvH26SeFNXtN_a6D-0rRUm83Ez3ddfgXzKQ_5S_gD-2vplGzQwf4KUN6BkHa-n6gzjtl2hY6l25wSGoP9aL1dHiOMOfI2cvXUjQlmj1zQ0ylRg-PBUSW_0NabQAcRcRdy1W5tWtdIYDaiNY8hpiadniP4KURDLf1XCsamkAKuiARH1pL7B2B0eRg3V928czJ0lePIhyDcfBJTNHONS7hw3Zys6V3IIr9LzejxCQjnUTpNsPqJFUbXqOMl8as_EeDd0eEFOxXkxgfiDZHTTV2XfUz_GS0]--></g></svg>